<svg fill="#fa586a" xmlns:xlink="http://www.w3.org/1999/xlink"  xmlns="http://www.w3.org/2000/svg" width="24" height="24" aria-hidden="true"><path d="M5.553 8.728h1.834c.454 0 .807-.127 1.059-.382.251-.254.377-.617.377-1.087V5.49c0-.465-.126-.826-.377-1.084-.252-.257-.605-.386-1.059-.386H5.553c-.454 0-.807.13-1.059.386-.251.258-.377.619-.377 1.084v1.768c0 .47.126.833.377 1.087.252.255.605.382 1.059.382Zm.157-1.137c-.149 0-.261-.039-.336-.116-.074-.078-.112-.197-.112-.357V5.632c0-.155.038-.271.112-.349.075-.077.187-.116.336-.116h1.52c.143 0 .255.039.336.116.08.078.12.194.12.349v1.486c0 .16-.04.28-.12.357a.464.464 0 0 1-.337.116H5.71Zm5.62 1.137h1.843c.454 0 .805-.127 1.054-.382.25-.254.374-.617.374-1.087V5.49c0-.465-.125-.826-.374-1.084-.249-.257-.6-.386-1.054-.386H11.33c-.454 0-.805.13-1.054.386-.25.258-.374.619-.374 1.084v1.768c0 .47.125.833.374 1.087.249.255.6.382 1.054.382Zm.158-1.137c-.15 0-.262-.039-.336-.116-.075-.078-.112-.197-.112-.357V5.632c0-.155.037-.271.112-.349.074-.077.186-.116.336-.116h1.527c.144 0 .255.039.332.116.078.078.116.194.116.349v1.486c0 .16-.038.28-.116.357-.077.077-.188.116-.332.116h-1.527Zm5.636 1.137h1.834c.454 0 .807-.127 1.059-.382.252-.254.378-.617.378-1.087V5.49c0-.465-.126-.826-.378-1.084-.252-.257-.605-.386-1.059-.386h-1.834c-.454 0-.807.13-1.058.386-.252.258-.378.619-.378 1.084v1.768c0 .47.126.833.378 1.087.251.255.604.382 1.058.382Zm.158-1.137c-.15 0-.263-.039-.34-.116-.078-.078-.117-.197-.117-.357V5.632c0-.155.039-.271.116-.349.078-.077.191-.116.34-.116h1.52c.144 0 .254.039.332.116.077.078.116.194.116.349v1.486c0 .16-.039.28-.116.357-.078.077-.188.116-.332.116h-1.52Zm-11.73 6.757h1.835c.454 0 .807-.128 1.059-.382.251-.255.377-.614.377-1.08V11.11c0-.47-.126-.832-.377-1.087-.252-.255-.605-.382-1.059-.382H5.553c-.454 0-.807.127-1.059.382-.251.255-.377.617-.377 1.087v1.777c0 .465.126.824.377 1.079.252.254.605.382 1.059.382Zm.158-1.138c-.149 0-.261-.04-.336-.12-.074-.08-.112-.198-.112-.353v-1.494c0-.15.038-.264.112-.344.075-.08.187-.12.336-.12h1.52c.143 0 .255.04.336.12.08.08.12.195.12.344v1.494c0 .155-.04.273-.12.353a.454.454 0 0 1-.337.12H5.71Zm5.62 1.138h1.843c.454 0 .805-.128 1.054-.382.25-.255.374-.614.374-1.08V11.11c0-.47-.125-.832-.374-1.087s-.6-.382-1.054-.382H11.33c-.454 0-.805.127-1.054.382-.25.255-.374.617-.374 1.087v1.777c0 .465.125.824.374 1.079.249.254.6.382 1.054.382Zm.158-1.138c-.15 0-.262-.04-.336-.12-.075-.08-.112-.198-.112-.353v-1.494c0-.15.037-.264.112-.344.074-.08.186-.12.336-.12h1.527c.144 0 .255.04.332.12.078.08.116.195.116.344v1.494c0 .155-.038.273-.116.353-.077.08-.188.12-.332.12h-1.527Zm5.636 1.138h1.834c.454 0 .807-.128 1.059-.382.252-.255.378-.614.378-1.08V11.11c0-.47-.126-.832-.378-1.087s-.605-.382-1.059-.382h-1.834c-.454 0-.807.127-1.058.382-.252.255-.378.617-.378 1.087v1.777c0 .465.126.824.378 1.079.251.254.604.382 1.058.382Zm.158-1.138c-.15 0-.263-.04-.34-.12-.078-.08-.117-.198-.117-.353v-1.494c0-.15.039-.264.116-.344.078-.08.191-.12.34-.12h1.52c.144 0 .254.04.332.12.077.08.116.195.116.344v1.494c0 .155-.039.273-.116.353-.078.08-.188.12-.332.12h-1.52Zm-11.73 6.757h1.835c.454 0 .807-.127 1.059-.382.251-.254.377-.617.377-1.087V16.73c0-.47-.126-.833-.377-1.087-.252-.255-.605-.382-1.059-.382H5.553c-.454 0-.807.127-1.059.382-.251.254-.377.617-.377 1.087v1.768c0 .47.126.833.377 1.087.252.255.605.382 1.059.382Zm.158-1.145c-.149 0-.261-.039-.336-.116-.074-.078-.112-.194-.112-.35v-1.485c0-.16.038-.28.112-.357.075-.077.187-.116.336-.116h1.52c.143 0 .255.039.336.116.08.078.12.197.12.357v1.486c0 .155-.04.271-.12.349a.464.464 0 0 1-.337.116H5.71Zm5.62 1.145h1.843c.454 0 .805-.127 1.054-.382.25-.254.374-.617.374-1.087V16.73c0-.47-.125-.833-.374-1.087-.249-.255-.6-.382-1.054-.382H11.33c-.454 0-.805.127-1.054.382-.25.254-.374.617-.374 1.087v1.768c0 .47.125.833.374 1.087.249.255.6.382 1.054.382Zm.158-1.145c-.15 0-.262-.039-.336-.116-.075-.078-.112-.194-.112-.35v-1.485c0-.16.037-.28.112-.357.074-.077.186-.116.336-.116h1.527c.144 0 .255.039.332.116.078.078.116.197.116.357v1.486c0 .155-.038.271-.116.349-.077.077-.188.116-.332.116h-1.527Zm5.636 1.145h1.834c.454 0 .807-.127 1.059-.382.252-.254.378-.617.378-1.087V16.73c0-.47-.126-.833-.378-1.087-.252-.255-.605-.382-1.059-.382h-1.834c-.454 0-.807.127-1.058.382-.252.254-.378.617-.378 1.087v1.768c0 .47.126.833.378 1.087.251.255.604.382 1.058.382Zm.158-1.145c-.15 0-.263-.039-.34-.116-.078-.078-.117-.194-.117-.35v-1.485c0-.16.039-.28.116-.357.078-.077.191-.116.34-.116h1.52c.144 0 .254.039.332.116.077.078.116.197.116.357v1.486c0 .155-.039.271-.116.349-.078.077-.188.116-.332.116h-1.52Z"></path></svg>